<?xml version="1.0" encoding="utf-8"?>
<!-- Generator: Adobe Illustrator 15.0.0, SVG Export Plug-In . SVG Version: 6.00 Build 0)  -->
<!DOCTYPE svg PUBLIC "-//W3C//DTD SVG 1.1//EN" "http://www.w3.org/Graphics/SVG/1.1/DTD/svg11.dtd">
<svg version="1.1" id="Layer_1" xmlns="http://www.w3.org/2000/svg" xmlns:xlink="http://www.w3.org/1999/xlink" x="0px" y="0px"
	 width="841.891px" height="595.279px" viewBox="0 0 841.891 595.279" enable-background="new 0 0 841.891 595.279"
	 xml:space="preserve">
<linearGradient id="SVGID_1_" gradientUnits="userSpaceOnUse" x1="438.7761" y1="94.9797" x2="438.7761" y2="455.2142" gradientTransform="matrix(1 0 0 -1 -0.0151 594.979)">
	<stop  offset="0" style="stop-color:#991B48"/>
	<stop  offset="1" style="stop-color:#B02154"/>
</linearGradient>
<path fill="url(#SVGID_1_)" d="M645,418.331c0,39.765-32.234,72-72,72H304.521c-39.766,0-72-32.235-72-72V149.852
	c0-39.765,32.234-72,72-72H573c39.766,0,72,32.235,72,72V418.331z"/>
<path fill="#FFFFFF" stroke="#B02058" stroke-width="12" stroke-miterlimit="10" stroke-opacity="0" d="M385.022,222.207
	c-1.123-2.323-1.866-4.432-2.338-6.361c-2.497,1.113-4.965,2.887-7.151,5.645c-26.141,32.979-63.542,80.164-80.477,101.529
	c-6.16,7.771-5.748,17.938-1.126,28.557c0.068,0.158,0.208,0.475,0.208,0.475l0.002,0.006c4.736,10.607,13.634,21.631,24.338,31.146
	l0.028,0.033c0,0,0.412,0.363,0.622,0.553c24.892,21.844,59.176,35.406,73.874,16.865c4.866-6.137,11.942-15.074,20.193-25.471
	l33.496-42.26c9.914-12.51,18.317-23.113,26.763-33.763c2.176-2.746,3.338-5.54,3.855-8.213
	C451.623,290.694,397.312,247.634,385.022,222.207z"/>
<path fill-rule="evenodd" clip-rule="evenodd" fill="#FFFFFF" d="M541.585,290.575c-8.063,15.451-33.356,65.227-31.622,86.348
	c1.734,21.119,17.584,32.453,35.048,32.455c17.465,0.004,31.168-16.648,31.433-35.688
	C576.707,354.65,547.576,303.404,541.585,290.575z M527.263,343.575c-7.188,23.613,1.598,46.414,11.182,57
	C501.707,391.618,527.263,343.575,527.263,343.575z"/>
<path fill="#F399BB" d="M494.603,238.277c-2.334,2.084-5.385,3.142-9.07,3.142c-15.729,0.001-43.744-21.005-53.176-36.684
	c-4.123-6.857-4.918-12.776-2.363-17.593c1.639-3.083,3.896-5.048,6.301-6.315c-11.67-5.128-21.327-6.393-25.556-1.057
	c-1.253,1.58-20.608,25.998-20.608,25.998c-15.339,19.356,80.321,95.549,95.838,75.967c0,0,18.645-23.521,20.609-26.001
	c4.229-5.334,0.674-14.567-7.141-24.893C498.681,233.427,497.205,235.957,494.603,238.277z"/>
<path fill="#FAAA43" d="M524.338,175.183c-6.948,15.478-27.514,18.528-32.537,28.101c-5.022,9.571,8.008,22.49-1.359,30.85
	c-11.292,10.084-62.828-29.685-55.314-43.846c5.477-10.307,21.556-1.29,29.723-8.361c8.176-7.076,5.488-26.967,19.935-38.094
	C503.508,129.403,535.072,151.286,524.338,175.183z"/>
</svg>
