<?xml version="1.0" encoding="UTF-8" standalone="no"?>
<svg width="353px" height="460px" viewBox="0 0 353 460" version="1.1" xmlns="http://www.w3.org/2000/svg" xmlns:xlink="http://www.w3.org/1999/xlink" xmlns:sketch="http://www.bohemiancoding.com/sketch/ns">
    <title>Untitled 2</title>
    <description>Created with Sketch (http://www.bohemiancoding.com/sketch)</description>
    <defs></defs>
    <g id="Page-1" stroke="none" stroke-width="1" fill="none" fill-rule="evenodd" sketch:type="MSPage">
        <g id="tree" sketch:type="MSLayerGroup" transform="translate(15.000000, 15.000000)" fill="#FFFFFF">
            <path d="M176,360.32123 C191.008102,365.652265 214.030015,373.304078 226.961411,375 C257.495888,379.004522 314,375 314,375 C314,375 291.138596,361.5 263.319298,335 C235.5,308.5 226.961404,281 226.961404,281 L271.941609,287.668564 C271.941609,287.668564 241.34144,262.5 219.67072,233.5 C198,204.5 192.25614,174 192.25614,174 L219.670714,179.131546 C219.670714,179.131546 212.638599,174.499999 188.950877,129.5 C165.263158,84.5 157,49 157,49 C157,49 148.736842,91 127.252632,129.5 C105.768425,168.000002 94.3023589,179.187454 94.3023589,179.187454 L122.294737,174 C122.294737,174 108.5,205.5 88.6912281,233.5 C68.882454,261.499998 42.5230313,286.703769 42.5230313,286.703769 L90.8947368,281 C90.8947368,281 77.5,306 51.2315789,335 C24.963155,363.999997 0,375 0,375 C0,375 72.6059128,379.507004 109,375 C120.058636,373.630509 138.203104,365.955618 150,360.522822 L150,427 L176,427 L176,360.32123 Z" id="Triangle-1" sketch:type="MSShapeGroup"></path>
            <polygon id="Star-1" sketch:type="MSShapeGroup" points="157.499999 36.75 143.099262 44.3209172 145.849558 28.2854587 134.199115 16.9290842 150.299633 14.5895401 157.5 2.72004641e-15 164.700372 14.5895437 180.800889 16.9290958 169.150441 28.2854617 171.900737 44.3209175 "></polygon>
        </g>
    </g>
</svg>