<?xml version="1.0" encoding="UTF-8" standalone="no"?>
<!-- Created with Inkscape (http://www.inkscape.org/) -->

<svg
   xmlns:dc="http://purl.org/dc/elements/1.1/"
   xmlns:cc="http://creativecommons.org/ns#"
   xmlns:rdf="http://www.w3.org/1999/02/22-rdf-syntax-ns#"
   xmlns:svg="http://www.w3.org/2000/svg"
   xmlns="http://www.w3.org/2000/svg"
   xmlns:sodipodi="http://sodipodi.sourceforge.net/DTD/sodipodi-0.dtd"
   xmlns:inkscape="http://www.inkscape.org/namespaces/inkscape"
   width="1744.09"
   height="2300.3601"
   id="svg2"
   version="1.1"
   inkscape:version="0.48.2 r9819"
   sodipodi:docname="icons.svg">
  <defs
     id="defs4" />
  <sodipodi:namedview
     id="base"
     pagecolor="#ffffff"
     bordercolor="#666666"
     borderopacity="1.0"
     inkscape:pageopacity="0.0"
     inkscape:pageshadow="2"
     inkscape:zoom="0.7"
     inkscape:cx="663.03548"
     inkscape:cy="2322.8738"
     inkscape:document-units="px"
     inkscape:current-layer="layer1"
     showgrid="false"
     inkscape:window-width="1280"
     inkscape:window-height="800"
     inkscape:window-x="0"
     inkscape:window-y="0"
     inkscape:window-maximized="1"
     showguides="false">
    <inkscape:grid
       type="xygrid"
       id="grid3984"
       empspacing="5"
       visible="true"
       enabled="true"
       snapvisiblegridlinesonly="true" />
  </sodipodi:namedview>
  <metadata
     id="metadata7">
    <rdf:RDF>
      <cc:Work
         rdf:about="">
        <dc:format>image/svg+xml</dc:format>
        <dc:type
           rdf:resource="http://purl.org/dc/dcmitype/StillImage" />
        <dc:title></dc:title>
      </cc:Work>
    </rdf:RDF>
  </metadata>
  <g
     inkscape:label="Layer 1"
     inkscape:groupmode="layer"
     id="layer1"
     transform="translate(0,1247.9978)">
    <rect
       style="fill:#cccccc;fill-opacity:1;stroke:none"
       id="rect3924"
       width="300"
       height="300"
       x="122.6643"
       y="-374.94489"
       rx="29.891359"
       ry="0"
       inkscape:export-filename="/Users/pvasek/develop/projects/Babynder/img/shit.png"
       inkscape:export-xdpi="10.5"
       inkscape:export-ydpi="10.5" />
    <rect
       ry="0"
       rx="29.891359"
       y="-785.8515"
       x="1385.4171"
       height="300"
       width="300"
       id="rect3922"
       style="fill:#cccccc;fill-opacity:1;stroke:none"
       inkscape:export-filename="/Users/pvasek/develop/projects/Babynder/img/weight.png"
       inkscape:export-xdpi="10.5"
       inkscape:export-ydpi="10.5" />
    <rect
       style="fill:#cccccc;fill-opacity:1;stroke:none"
       id="rect3920"
       width="300"
       height="300"
       x="996.12885"
       y="-773.83368"
       rx="29.891359"
       ry="0"
       inkscape:export-filename="/Users/pvasek/develop/projects/Babynder/img/height.png"
       inkscape:export-xdpi="10.5"
       inkscape:export-ydpi="10.5" />
    <rect
       ry="0"
       rx="29.891359"
       y="-764.20178"
       x="541.93408"
       height="300"
       width="300"
       id="rect3913"
       style="fill:#cccccc;fill-opacity:1;stroke:none"
       inkscape:export-filename="/Users/pvasek/develop/projects/Babynder/img/temperature.png"
       inkscape:export-xdpi="10.5"
       inkscape:export-ydpi="10.5" />
    <rect
       ry="0"
       rx="29.891359"
       y="-767.14874"
       x="120.82298"
       height="300"
       width="300"
       id="rect3911"
       style="fill:#cccccc;fill-opacity:1;stroke:none"
       inkscape:export-filename="/Users/pvasek/develop/projects/Babynder/img/pills.png"
       inkscape:export-xdpi="10.5"
       inkscape:export-ydpi="10.5" />
    <rect
       ry="0"
       rx="29.891359"
       y="-1192.059"
       x="1341.3427"
       height="300"
       width="300"
       id="rect3909"
       style="fill:#cccccc;fill-opacity:1;stroke:none"
       inkscape:export-filename="/Users/pvasek/develop/projects/Babynder/img/bed.png"
       inkscape:export-xdpi="10.5"
       inkscape:export-ydpi="10.5" />
    <rect
       style="fill:#cccccc;fill-opacity:1;stroke:none"
       id="rect3893"
       width="300"
       height="300"
       x="912.69873"
       y="-1190.9261"
       rx="29.891359"
       ry="0"
       inkscape:export-filename="/Users/pvasek/develop/projects/Babynder/img/mesh.png"
       inkscape:export-xdpi="10.5"
       inkscape:export-ydpi="10.5" />
    <rect
       ry="0"
       rx="29.891359"
       y="-1193.7833"
       x="469.84158"
       height="300"
       width="300"
       id="rect3891"
       style="fill:#cccccc;fill-opacity:1;stroke:none"
       inkscape:export-filename="/Users/pvasek/develop/projects/Babynder/img/breast80.png"
       inkscape:export-xdpi="24.000002"
       inkscape:export-ydpi="24.000002" />
    <rect
       style="fill:#cccccc;fill-opacity:1;stroke:none"
       id="rect3889"
       width="300"
       height="300"
       x="90.505508"
       y="-1192.7732"
       rx="29.891359"
       ry="0"
       inkscape:export-filename="/Users/pvasek/develop/projects/Babynder/img/bottle.png"
       inkscape:export-xdpi="10.5"
       inkscape:export-ydpi="10.5" />
    <path
       style="fill:#2e9eff;fill-opacity:1;fill-rule:evenodd;stroke:none"
       d="m 619.82805,-1191.5346 c -81.59254,0 -147.71875,66.1575 -147.71875,147.75 0,81.59256 66.12621,147.75002 147.71875,147.75002 81.59254,0 147.75,-66.15746 147.75,-147.75002 0,-81.5925 -66.15746,-147.75 -147.75,-147.75 z m 0,92.9375 c 30.27073,0 54.8125,24.5418 54.8125,54.8125 0,30.2708 -24.54177,54.81252 -54.8125,54.81252 -30.27073,0 -54.78125,-24.54172 -54.78125,-54.81252 0,-30.2707 24.51052,-54.8125 54.78125,-54.8125 z m 0,36.5625 c -10.08841,0 -18.25,8.1616 -18.25,18.25 0,10.0884 8.16159,18.2813 18.25,18.2813 10.08841,0 18.28125,-8.1929 18.28125,-18.2813 0,-10.0884 -8.19284,-18.25 -18.28125,-18.25 z"
       id="path2985"
       inkscape:connector-curvature="0" />
    <path
       style="fill:#2e9eff;fill-opacity:1"
       d="m 238.51555,-1192.5033 c -9.72624,0 -17.5625,7.8362 -17.5625,17.5625 l 0,33.0312 -12.75,0 c -5.907,0 -10.65625,4.7493 -10.65625,10.6563 l 0,28.9062 -16.3125,0 c -12.27694,0 -22.15625,9.8793 -22.15625,22.1563 l 0,164.96872 c 0,12.27694 9.87931,22.1875 22.15625,22.1875 l 119.96875,0 c 12.27694,0 22.1875,-9.91056 22.1875,-22.1875 l 0,-164.96872 c 0,-12.277 -9.91056,-22.1563 -22.1875,-22.1563 l -16.3125,0 0,-28.9062 c 0,-5.907 -4.74925,-10.6563 -10.65625,-10.6563 l -12.71875,0 0,-33.0312 c 0,-9.7263 -7.83626,-17.5625 -17.5625,-17.5625 l -5.4375,0 z m 0.0625,12.5 5.3125,0 c 4.21241,0 7.125,2.9188 7.125,7.1562 l 0,30.0313 -19.5625,0 0,-30.0313 c 0,-4.2374 2.91259,-7.1562 7.125,-7.1562 z"
       id="rect3771"
       inkscape:connector-curvature="0" />
    <path
       style="fill:#2e9eff;fill-opacity:1"
       d="m 1172.2252,-1145.6063 c -8.5198,-0.08 -19.6223,3.0825 -30.6043,9.2878 l -78.7779,44.521 77.9778,0 19.4028,-10.9704 c 19.5234,-11.0317 31.0922,-27.3844 25.937,-36.6802 -2.2554,-4.0669 -7.3087,-6.0961 -13.9354,-6.1582 z m -257.8034,61.515 0,60.6063 c 0,44.70515 35.656,80.69637 79.94473,80.69637 l 136.61957,0 c 44.2887,0 79.9446,-35.99122 79.9446,-80.69637 l 0,-60.6063 -37.1719,0 -46.5734,0 -77.9777,0 -90.34623,0 -44.43967,0 z"
       id="rect3876"
       inkscape:connector-curvature="0" />
    <g
       id="g3018"
       inkscape:export-filename="/Users/pvasek/develop/projects/Babynder/img/pills.png"
       inkscape:export-xdpi="11.130742"
       inkscape:export-ydpi="11.130742"
       transform="matrix(1.0553989,-0.09865004,0.09864983,1.0554011,-120.6974,-142.69423)">
      <path
         id="path3005"
         d="m 409.41215,-552.78052 c -78.14946,0 -141.5,63.35054 -141.5,141.5 0,29.63463 9.14668,57.14347 24.71875,79.875 l 217.75,-179 c -25.67584,-26.14928 -61.42618,-42.375 -100.96875,-42.375 z m 116.78125,61.59375 -217.71875,179.03125 c 25.67584,26.14928 61.39493,42.375 100.9375,42.375 78.14946,0 141.5,-63.35054 141.5,-141.5 0,-29.65937 -9.12289,-57.16373 -24.71875,-79.90625 z"
         style="fill:#2e9eff;fill-opacity:1;fill-rule:evenodd;stroke:none"
         inkscape:connector-curvature="0" />
    </g>
    <g
       id="g3798"
       transform="matrix(0.82236218,0.82236218,-0.82236218,0.82236218,651.57784,-1636.4586)"
       inkscape:export-filename="/Users/pvasek/develop/projects/Babynder/img/temperature.png"
       inkscape:export-xdpi="12.393296"
       inkscape:export-ydpi="12.393296">
      <path
         id="rect3021"
         d="m 645.59375,431.65625 c -18.53504,0 -33.4375,14.90246 -33.4375,33.4375 l 0,199.53125 c 0,18.53504 14.90246,33.4375 33.4375,33.4375 l 0.25,0 c 18.53504,0 33.4375,-14.90246 33.4375,-33.4375 l 0,-199.53125 c 0,-18.53504 -14.90246,-33.4375 -33.4375,-33.4375 l -0.25,0 z m 0,19.75 0.25,0 c 7.9476,0 13.6875,5.7399 13.6875,13.6875 l 0,199.53125 c 0,7.9476 -5.7399,13.6875 -13.6875,13.6875 l -0.25,0 c -7.9476,0 -13.6875,-5.7399 -13.6875,-13.6875 l 0,-199.53125 c 0,-7.9476 5.7399,-13.6875 13.6875,-13.6875 z"
         style="fill:#2e9eff;fill-opacity:1;stroke:none"
         inkscape:connector-curvature="0" />
      <rect
         style="fill:#2e9eff;fill-opacity:1;stroke:none"
         id="rect3791"
         width="31.647715"
         height="91.295105"
         x="630.60474"
         y="678.50037"
         ry="15.823857" />
    </g>
    <g
       id="g3812"
       transform="matrix(1,0,0,0.98810449,166.83201,-1217.5784)"
       inkscape:export-filename="/Users/pvasek/develop/projects/Babynder/img/height.png"
       inkscape:export-xdpi="10.375097"
       inkscape:export-ydpi="10.375097">
      <rect
         ry="2.356334"
         y="485.2193"
         x="962.86829"
         height="237.14288"
         width="32.857159"
         id="rect3802"
         style="fill:#2e9eff;fill-opacity:1;stroke:none" />
      <path
         sodipodi:type="inkscape:offset"
         inkscape:radius="8.1441097"
         inkscape:original="M 979.28125 453.90625 L 906.5625 526.65625 L 1052.0312 526.65625 C 1027.7876 502.41258 1003.5249 478.14992 979.28125 453.90625 z "
         style="fill:#2e9eff;fill-opacity:1;stroke:none"
         id="path3855"
         d="m 979.15625,445.75 a 8.1449241,8.1449241 0 0 0 -5.625,2.40625 l -72.71875,72.75 a 8.1449241,8.1449241 0 0 0 5.75,13.90625 l 145.4687,0 a 8.1449241,8.1449241 0 0 0 5.75,-13.90625 c -24.2436,-24.24368 -48.5063,-48.50633 -72.74995,-72.75 a 8.1449241,8.1449241 0 0 0 -5.875,-2.40625 z"
         transform="matrix(0.9250554,0,0,0.9250554,73.39301,36.743911)" />
      <path
         transform="matrix(0.9250554,0,0,-0.9250554,73.39301,1165.0414)"
         d="m 979.15625,445.75 a 8.1449241,8.1449241 0 0 0 -5.625,2.40625 l -72.71875,72.75 a 8.1449241,8.1449241 0 0 0 5.75,13.90625 l 145.4687,0 a 8.1449241,8.1449241 0 0 0 5.75,-13.90625 c -24.2436,-24.24368 -48.5063,-48.50633 -72.74995,-72.75 a 8.1449241,8.1449241 0 0 0 -5.875,-2.40625 z"
         id="path3857"
         style="fill:#2e9eff;fill-opacity:1;stroke:none"
         inkscape:original="M 979.28125 453.90625 L 906.5625 526.65625 L 1052.0312 526.65625 C 1027.7876 502.41258 1003.5249 478.14992 979.28125 453.90625 z "
         inkscape:radius="8.1441097"
         sodipodi:type="inkscape:offset" />
      <g
         id="g3865">
        <rect
           ry="2.356334"
           y="485.2193"
           x="962.86829"
           height="237.14288"
           width="32.857159"
           id="rect3859"
           style="fill:#2e9eff;fill-opacity:1;stroke:none" />
        <path
           sodipodi:type="inkscape:offset"
           inkscape:radius="8.1441097"
           inkscape:original="M 979.28125 453.90625 L 906.5625 526.65625 L 1052.0312 526.65625 C 1027.7876 502.41258 1003.5249 478.14992 979.28125 453.90625 z "
           style="fill:#2e9eff;fill-opacity:1;stroke:none"
           id="path3861"
           d="m 979.15625,445.75 a 8.1449241,8.1449241 0 0 0 -5.625,2.40625 l -72.71875,72.75 a 8.1449241,8.1449241 0 0 0 5.75,13.90625 l 145.4687,0 a 8.1449241,8.1449241 0 0 0 5.75,-13.90625 c -24.2436,-24.24368 -48.5063,-48.50633 -72.74995,-72.75 a 8.1449241,8.1449241 0 0 0 -5.875,-2.40625 z"
           transform="matrix(0.9250554,0,0,0.9250554,73.39301,36.743911)" />
        <path
           transform="matrix(0.9250554,0,0,-0.9250554,73.39301,1165.0414)"
           d="m 979.15625,445.75 a 8.1449241,8.1449241 0 0 0 -5.625,2.40625 l -72.71875,72.75 a 8.1449241,8.1449241 0 0 0 5.75,13.90625 l 145.4687,0 a 8.1449241,8.1449241 0 0 0 5.75,-13.90625 c -24.2436,-24.24368 -48.5063,-48.50633 -72.74995,-72.75 a 8.1449241,8.1449241 0 0 0 -5.875,-2.40625 z"
           id="path3863"
           style="fill:#2e9eff;fill-opacity:1;stroke:none"
           inkscape:original="M 979.28125 453.90625 L 906.5625 526.65625 L 1052.0312 526.65625 C 1027.7876 502.41258 1003.5249 478.14992 979.28125 453.90625 z "
           inkscape:radius="8.1441097"
           sodipodi:type="inkscape:offset" />
      </g>
    </g>
    <g
       id="g3825"
       inkscape:export-filename="/Users/pvasek/develop/projects/Babynder/img/weight.png"
       inkscape:export-xdpi="11.130742"
       inkscape:export-ydpi="11.130742"
       transform="matrix(1.0664271,0,0,1.0730538,197.81286,-1273.2485)">
      <rect
         ry="41.497696"
         y="560.93365"
         x="1154.2858"
         height="172.85715"
         width="200"
         id="rect3817"
         style="fill:#2e9eff;fill-opacity:1;stroke:none" />
      <rect
         ry="37.433037"
         y="454.21487"
         x="1192.8572"
         height="74.866074"
         width="122.85715"
         id="rect3819"
         style="fill:#2e9eff;fill-opacity:1;stroke:none" />
      <rect
         ry="29.285715"
         y="499.50504"
         x="1225"
         height="87.14286"
         width="58.57143"
         id="rect3823"
         style="fill:#2e9eff;fill-opacity:1;stroke:none" />
    </g>
    <path
       style="fill:#2e9eff;fill-opacity:1;stroke:none"
       d="m 1359.4218,-1147.5198 c -9.6747,0 -17.4876,7.0541 -17.4876,15.8292 l 0,131.7395 c 0,0.54844 0.025,1.07103 0.085,1.6048 0,0.0119 0,0.0247 0,0.0364 -0.04,0.34288 -0.085,0.66893 -0.085,1.02123 l 0,50.51474 c 0,5.63692 5.2822,10.17589 11.8424,10.17589 l 7.3854,0 c 6.5601,0 11.8424,-4.53897 11.8424,-10.17589 l 0,-37.34808 235.7428,0 0,38.18695 c 0,5.17271 4.8462,9.33702 10.866,9.33702 l 10.2719,0 c 6.0198,0 10.8661,-4.16431 10.8661,-9.33702 l 0,-54.01611 0,-131.73946 c 0,-8.7752 -7.7705,-15.8292 -17.4452,-15.8292 l -263.8842,0 z m 24.2364,18.3458 3.905,0 c 6.4408,0 11.6301,4.4591 11.6301,9.9935 l 0,107.5581 c 0,5.5345 -5.1893,9.9936 -11.6301,9.9936 l -3.905,0 c -6.4408,0 -11.6301,-4.4591 -11.6301,-9.9936 l 0,-107.5581 c 0,-5.5344 5.1893,-9.9935 11.6301,-9.9935 z m 52.6325,0 3.9051,0 c 6.4407,0 11.6301,4.4591 11.6301,9.9935 l 0,107.5581 c 0,5.5345 -5.1894,9.9936 -11.6301,9.9936 l -3.9051,0 c -6.4407,0 -11.6301,-4.4591 -11.6301,-9.9936 l 0,-107.5581 c 0,-5.5344 5.1894,-9.9935 11.6301,-9.9935 z m 52.6326,0 3.9049,0 c 6.4409,0 11.6301,4.4591 11.6301,9.9935 l 0,107.5581 c 0,5.5345 -5.1892,9.9936 -11.6301,9.9936 l -3.9049,0 c -6.4408,0 -11.6301,-4.4591 -11.6301,-9.9936 l 0,-107.5581 c 0,-5.5344 5.1893,-9.9935 11.6301,-9.9935 z m 52.6325,0 3.905,0 c 6.4407,0 11.6301,4.4591 11.6301,9.9935 l 0,107.5581 c 0,5.5345 -5.1894,9.9936 -11.6301,9.9936 l -3.905,0 c -6.4407,0 -11.63,-4.4591 -11.63,-9.9936 l 0,-107.5581 c 0,-5.5344 5.1893,-9.9935 11.63,-9.9935 z m 52.6325,0 3.905,0 c 6.4408,0 11.6301,4.4591 11.6301,9.9935 l 0,107.5581 c 0,5.5345 -5.1893,9.9936 -11.6301,9.9936 l -3.905,0 c -6.4408,0 -11.6301,-4.4591 -11.6301,-9.9936 l 0,-107.5581 c 0,-5.5344 5.1893,-9.9935 11.6301,-9.9935 z"
       id="rect3830"
       inkscape:connector-curvature="0"
       inkscape:export-filename="/Users/pvasek/develop/projects/Babynder/img/bed.png"
       inkscape:export-xdpi="11.130742"
       inkscape:export-ydpi="11.130742" />
    <g
       id="g3884"
       transform="matrix(1.1410019,0,0,1,-43.144261,-1166.0278)"
       inkscape:export-filename="/Users/pvasek/develop/projects/Babynder/img/shit.png"
       inkscape:export-xdpi="11.98052"
       inkscape:export-ydpi="11.98052">
      <rect
         ry="37.37566"
         y="971.00024"
         x="145.31839"
         height="74.75132"
         width="262.92682"
         id="rect3870"
         style="fill:#2e9eff;fill-opacity:1;stroke:none" />
      <rect
         style="fill:#2e9eff;fill-opacity:1;stroke:none"
         id="rect3872"
         width="165.66501"
         height="74.75132"
         x="195.9696"
         y="890.63623"
         ry="37.37566" />
      <path
         sodipodi:nodetypes="cccc"
         inkscape:connector-curvature="0"
         id="path3874"
         d="m 257.08382,883.8915 c 13.03563,-22.87089 16.24085,-36.26984 52.52794,-47.47717 14.15384,17.04091 14.46319,32.62451 3.03045,46.9721 -19.15042,-0.4626 -37.75375,-0.37811 -55.55839,0.50507 z"
         style="fill:#2e9eff;fill-opacity:1;stroke:none" />
    </g>
    <rect
       inkscape:export-ydpi="34.200001"
       inkscape:export-xdpi="34.200001"
       inkscape:export-filename="/Users/pvasek/develop/projects/Babynder/img/app_icon@2x.png"
       style="fill:#ffffff;fill-opacity:1;stroke:none"
       id="rect3926"
       width="300"
       height="300"
       x="139.87306"
       y="33.839043"
       rx="29.891359"
       ry="0" />
    <path
       style="opacity:0.62616817;fill:#00ff00;fill-opacity:1;stroke:none"
       d="M -89.984297,132.36231 -160,163.21414 l 0,93.95254 70.015703,30.85193 L -20,257.16668 l 0,-93.95254 -69.984297,-30.85183 z"
       id="rect3965"
       inkscape:connector-curvature="0" />
    <path
       id="path3997"
       d="m -20,163.7522 0,93.4062 -70.03125,30.875 -69.96875,-30.875 0,-34.0312 140,-59.375 z"
       style="fill:#999999;stroke:#000000;stroke-width:1px;stroke-linecap:butt;stroke-linejoin:miter;stroke-opacity:1"
       inkscape:connector-curvature="0" />
    <path
       style="fill:#999999;stroke:#000000;stroke-width:1px;stroke-linecap:butt;stroke-linejoin:miter;stroke-opacity:1"
       d="M -160 1411.75 L -160 1505.1562 L -89.96875 1536.0312 L -20 1505.1562 L -20 1471.125 L -160 1411.75 z "
       transform="translate(0,-1247.9978)"
       id="path3986" />
    <g
       id="g4024"
       transform="matrix(1.2744912,0,0,1.7314751,621.27069,-174.93179)">
      <path
         inkscape:connector-curvature="0"
         id="path4017"
         d="m -330.0157,163.7522 62.84375,26.6562 -62.84375,26.5626 0,-53.2188 z"
         style="fill:#2e9eff;fill-opacity:1;stroke:none" />
      <path
         inkscape:connector-curvature="0"
         style="fill:#2e9eff;fill-opacity:1;stroke:none"
         d="m -190.03125,163.7522 0,93.4062 -70.03125,30.875 -69.96875,-30.875 0,-34.0312 140,-59.375 z"
         id="path4003" />
      <path
         inkscape:connector-curvature="0"
         id="path3999"
         d="m -260.04695,126.3772 70.03125,30.8438 0,0.5312 -70,29.6875 -70,-29.6875 0,-0.5312 69.96875,-30.8438 z"
         style="fill:#2e9eff;fill-opacity:1;stroke:none" />
      <path
         transform="matrix(-0.91790383,0,0,0.67242133,-493.39814,-795.0703)"
         d="m -230,1415.3601 a 25,25 0 1 1 -50,0 25,25 0 1 1 50,0 z"
         sodipodi:ry="25"
         sodipodi:rx="25"
         sodipodi:cy="1415.3601"
         sodipodi:cx="-255"
         id="path4020"
         style="fill:#ffffff;fill-opacity:1;stroke:none"
         sodipodi:type="arc" />
      <path
         sodipodi:nodetypes="ccccc"
         inkscape:connector-curvature="0"
         id="path4022"
         d="m -305,227.36231 45,40 55,-75 -55,50 z"
         style="fill:#ffffff;fill-opacity:1;stroke:none" />
    </g>
  </g>
</svg>
